<svg width="14" height="8" viewBox="0 0 14 8" fill="none" xmlns="http://www.w3.org/2000/svg">
<path d="M12.5575 0.557613L12.5575 0.557605C12.6156 0.49951 12.6846 0.453426 12.7605 0.421985C12.8364 0.390544 12.9178 0.374362 12.9999 0.374362C13.0821 0.374362 13.1634 0.390544 13.2393 0.421985C13.3152 0.453426 13.3842 0.49951 13.4423 0.557605C13.5004 0.6157 13.5465 0.684669 13.5779 0.760574C13.6094 0.83648 13.6255 0.917835 13.6255 0.999993C13.6255 1.08215 13.6094 1.16351 13.5779 1.23941C13.5465 1.31532 13.5004 1.38429 13.4423 1.44238L7.44242 7.44227L12.5575 0.557613ZM12.5575 0.557613L6.99992 6.1162L12.5575 0.557613ZM0.557417 0.557717C0.615474 0.499513 0.684444 0.453334 0.760375 0.421826C0.836307 0.390318 0.917709 0.3741 0.999917 0.3741C1.08213 0.3741 1.16353 0.390318 1.23946 0.421826C1.31537 0.453325 1.38432 0.499486 1.44237 0.557667L1.44231 0.557613L1.35392 0.645993L1.44242 0.557717H0.557417ZM0.557417 0.557717L0.645917 0.645993L0.557417 0.557717ZM7.23946 7.57816C7.31534 7.54667 7.38427 7.50053 7.44231 7.44238H6.55753C6.61556 7.50053 6.68449 7.54667 6.76038 7.57816C6.83631 7.60967 6.91771 7.62589 6.99992 7.62589C7.08213 7.62589 7.16353 7.60967 7.23946 7.57816ZM0.557641 1.44249L6.55742 7.44227L0.557601 1.44245C0.557614 1.44247 0.557627 1.44248 0.557641 1.44249Z" fill="#00B6B6" stroke="#00B6B6" stroke-width="0.25"/>
</svg>
