<svg width="24" height="26" viewBox="0 0 24 26" fill="none" xmlns="http://www.w3.org/2000/svg">
<path d="M12 25L11.914 25.0907L12 25.1722L12.086 25.0907L12 25ZM12 25C12.086 25.0907 12.086 25.0907 12.0861 25.0906L12.0865 25.0903L12.0878 25.089L12.0928 25.0843L12.1123 25.0655C12.1296 25.049 12.155 25.0245 12.1882 24.9923C12.2545 24.9279 12.3516 24.8327 12.4751 24.7093C12.722 24.4626 13.0745 24.1032 13.4975 23.6517C14.3432 22.7489 15.4711 21.4773 16.5993 20.0026C17.7272 18.5282 18.8573 16.8484 19.7058 15.129C20.5537 13.4111 21.125 11.6448 21.125 10C21.125 7.5799 20.1636 5.25892 18.4523 3.54765C16.7411 1.83638 14.4201 0.875 12 0.875C9.5799 0.875 7.25892 1.83638 5.54765 3.54765C3.83638 5.25892 2.875 7.5799 2.875 10C2.875 11.6448 3.44627 13.4111 4.29416 15.129C5.14272 16.8484 6.27281 18.5282 7.40072 20.0026C8.52892 21.4773 9.6568 22.7489 10.5025 23.6517C10.9255 24.1032 11.278 24.4626 11.5249 24.7093C11.6484 24.8327 11.7455 24.9279 11.8118 24.9923C11.845 25.0245 11.8704 25.049 11.8877 25.0655L11.9072 25.0843L11.9122 25.089L11.9135 25.0903L11.9139 25.0906C11.914 25.0907 11.914 25.0907 12 25ZM5.8631 14.3547L5.86307 14.3546C5.07225 12.7536 4.625 11.266 4.625 10C4.625 8.04403 5.40201 6.16817 6.78509 4.78509C8.16817 3.40201 10.044 2.625 12 2.625C13.956 2.625 15.8318 3.40201 17.2149 4.78509C18.598 6.16817 19.375 8.04403 19.375 10C19.375 11.2659 18.9263 12.7535 18.1369 14.3547C17.3557 15.9379 16.2958 17.5178 15.2097 18.9391C14.206 20.2443 13.1347 21.4959 12 22.6889C10.8653 21.4959 9.79395 20.2443 8.79032 18.9391C7.70415 17.5178 6.64426 15.9379 5.8631 14.3547Z" fill="#00B6B6" stroke="#00B6B6" stroke-width="0.25"/>
<path d="M12 12.875C11.2375 12.875 10.5062 12.5721 9.96707 12.0329C9.4279 11.4938 9.125 10.7625 9.125 10C9.125 9.2375 9.4279 8.50623 9.96707 7.96707C10.5062 7.4279 11.2375 7.125 12 7.125C12.7625 7.125 13.4938 7.4279 14.0329 7.96707C14.5721 8.50624 14.875 9.2375 14.875 10C14.875 10.7625 14.5721 11.4938 14.0329 12.0329C13.4938 12.5721 12.7625 12.875 12 12.875ZM12 14.625C13.2266 14.625 14.403 14.1377 15.2704 13.2704C16.1377 12.403 16.625 11.2266 16.625 10C16.625 8.77337 16.1377 7.59699 15.2704 6.72963C14.403 5.86228 13.2266 5.375 12 5.375C10.7734 5.375 9.59699 5.86228 8.72963 6.72963C7.86228 7.59699 7.375 8.77337 7.375 10C7.375 11.2266 7.86228 12.403 8.72963 13.2704C9.59699 14.1377 10.7734 14.625 12 14.625Z" fill="#00B6B6" stroke="#00B6B6" stroke-width="0.25"/>
</svg>
