<svg width="26" height="26" viewBox="0 0 26 26" fill="none" xmlns="http://www.w3.org/2000/svg">
<path d="M18.7858 16.4894C20.2073 14.4993 20.8405 12.051 20.56 9.61862C20.2748 7.14632 19.0667 4.87283 17.1774 3.25302C15.288 1.6332 12.8566 0.786506 10.3698 0.882329C7.88294 0.978151 5.52397 2.00942 3.76483 3.76983C2.00569 5.53023 0.976102 7.88993 0.882059 10.3768C0.788016 12.8638 1.63645 15.2945 3.25762 17.1827C4.87879 19.0709 7.15313 20.2774 9.62564 20.5608C12.058 20.8396 14.5057 20.2047 16.4947 18.782C16.5201 18.8118 16.5466 18.841 16.5747 18.8699L16.576 18.8711L22.3509 24.6461C22.3509 24.6461 22.3509 24.6461 22.351 24.6461C22.6556 24.951 23.069 25.1224 23.5 25.1225C23.9311 25.1227 24.3445 24.9516 24.6495 24.6469C24.9544 24.3422 25.1257 23.9289 25.1259 23.4978C25.1261 23.0667 24.955 22.6533 24.6503 22.3484L24.6502 22.3483L18.8758 16.5739C18.8757 16.5738 18.8756 16.5737 18.8755 16.5735C18.8466 16.5444 18.8167 16.5163 18.7858 16.4894ZM18.8763 10.7472C18.8763 11.8142 18.6662 12.8708 18.2579 13.8565C17.8496 14.8423 17.2511 15.738 16.4966 16.4925C15.7421 17.2469 14.8464 17.8454 13.8607 18.2537C12.8749 18.6621 11.8183 18.8722 10.7513 18.8722C9.68436 18.8722 8.62781 18.6621 7.64204 18.2537C6.65627 17.8454 5.76058 17.2469 5.0061 16.4925C4.25163 15.738 3.65315 14.8423 3.24483 13.8565C2.83651 12.8708 2.62635 11.8142 2.62635 10.7472C2.62635 8.59234 3.48237 6.52571 5.0061 5.00198C6.52984 3.47825 8.59646 2.62222 10.7513 2.62222C12.9062 2.62222 14.9729 3.47825 16.4966 5.00198C18.0203 6.52571 18.8763 8.59234 18.8763 10.7472Z" fill="#00B6B6" stroke="#00B6B6" stroke-width="0.25"/>
</svg>
